<?xml version="1.0" encoding="UTF-8"?>
<!DOCTYPE svg PUBLIC "-//W3C//DTD SVG 1.1//EN" "http://www.w3.org/Graphics/SVG/1.1/DTD/svg11.dtd">
<!-- Creator: CorelDRAW X7 -->
<svg xmlns="http://www.w3.org/2000/svg" xml:space="preserve" width="7in" height="6in" version="1.1" style="shape-rendering:geometricPrecision; text-rendering:geometricPrecision; image-rendering:optimizeQuality; fill-rule:evenodd; clip-rule:evenodd"
viewBox="0 0 7000 6000"
 xmlns:xlink="http://www.w3.org/1999/xlink">
 <defs>
  <style type="text/css">
   <![CDATA[
    .str0 {stroke:#C5D4FF;stroke-width:13.8898}
    .str1 {stroke:#5692CE;stroke-width:3}
    .str2 {stroke:#D4EBFF;stroke-width:3}
    .str3 {stroke:#FF2B9C;stroke-width:3}
    .str4 {stroke:#FF2B9C;stroke-width:3}
    .str5 {stroke:#6C82A2;stroke-width:55.5551;stroke-linecap:round;stroke-linejoin:round}
    .fil0 {fill:none;fill-rule:nonzero}
    .fil23 {fill:#173D7A;fill-rule:nonzero}
    .fil28 {fill:#264E88;fill-rule:nonzero}
    .fil11 {fill:#396CAA;fill-rule:nonzero}
    .fil10 {fill:#43586E;fill-rule:nonzero}
    .fil7 {fill:#564A41;fill-rule:nonzero}
    .fil1 {fill:#5692CE;fill-rule:nonzero}
    .fil19 {fill:#6C82A2;fill-rule:nonzero}
    .fil24 {fill:#94D358;fill-rule:nonzero}
    .fil9 {fill:#9FB6E3;fill-rule:nonzero}
    .fil17 {fill:#A2B585;fill-rule:nonzero}
    .fil32 {fill:#B60082;fill-rule:nonzero}
    .fil25 {fill:#C03D19;fill-rule:nonzero}
    .fil12 {fill:#C5D4FF;fill-rule:nonzero}
    .fil13 {fill:#CA9270;fill-rule:nonzero}
    .fil29 {fill:#D3008C;fill-rule:nonzero}
    .fil16 {fill:#D4EBFF;fill-rule:nonzero}
    .fil26 {fill:#DB5025;fill-rule:nonzero}
    .fil31 {fill:#E99C91;fill-rule:nonzero}
    .fil14 {fill:#EBBB98;fill-rule:nonzero}
    .fil2 {fill:#EBBD98;fill-rule:nonzero}
    .fil27 {fill:#EE5F2D;fill-rule:nonzero}
    .fil20 {fill:#F5F8FF;fill-rule:nonzero}
    .fil18 {fill:#FF2B9C;fill-rule:nonzero}
    .fil4 {fill:#FF9D80;fill-rule:nonzero}
    .fil21 {fill:#FFACAC;fill-rule:nonzero}
    .fil6 {fill:#FFB6A4;fill-rule:nonzero}
    .fil22 {fill:#FFC08C;fill-rule:nonzero}
    .fil30 {fill:#FFC1B0;fill-rule:nonzero}
    .fil5 {fill:#FFD9B4;fill-rule:nonzero}
    .fil15 {fill:#FFE6C3;fill-rule:nonzero}
    .fil3 {fill:white;fill-rule:nonzero}
    .fil8 {fill:#9FB6E3;fill-rule:nonzero;fill-opacity:0.101961}
   ]]>
  </style>
 </defs>
 <g id="Layer_x0020_1">
  <metadata id="CorelCorpID_0Corel-Layer"/>
  <g id="_961013723264">
   <g>
    <g>
     <polygon class="fil0 str0" points="2934,1811 2103,1811 2103,1212 2934,1212 "/>
    </g>
    <polygon class="fil1" points="2902,1777 2135,1777 2135,1246 2902,1246 "/>
    <polygon class="fil2" points="2329,1496 2213,1496 2213,1341 2329,1341 "/>
    <polygon class="fil3" points="2452,1609 2282,1609 2282,1453 2452,1453 "/>
    <polygon class="fil4" points="2763,1522 2593,1522 2593,1366 2763,1366 "/>
    <polygon class="fil5" points="2814,1685 2697,1685 2697,1476 2814,1476 "/>
    <polygon class="fil6" points="2737,1651 2620,1651 2620,1620 2737,1620 "/>
    <path class="fil7" d="M2232 1353c0,4 -3,8 -7,8 -4,0 -7,-4 -7,-8 0,-4 3,-7 7,-7 4,0 7,3 7,7z"/>
    <path class="fil6" d="M2301 1466c0,4 -3,7 -7,7 -4,0 -7,-3 -7,-7 0,-4 3,-8 7,-8 4,0 7,4 7,8z"/>
    <path class="fil6" d="M2447 1466c0,4 -3,7 -6,7 -4,0 -7,-3 -7,-7 0,-4 3,-8 7,-8 3,0 6,4 6,8z"/>
    <path class="fil7" d="M2324 1353c0,4 -3,8 -7,8 -3,0 -7,-4 -7,-8 0,-4 4,-7 7,-7 4,0 7,3 7,7z"/>
    <path class="fil7" d="M2613 1380c0,5 -3,8 -6,8 -4,0 -7,-3 -7,-8 0,-4 3,-7 7,-7 3,0 6,3 6,7z"/>
    <path class="fil6" d="M2716 1489c0,4 -3,7 -7,7 -4,0 -7,-3 -7,-7 0,-4 3,-8 7,-8 4,0 7,4 7,8z"/>
    <path class="fil6" d="M2810 1489c0,4 -3,7 -7,7 -4,0 -7,-3 -7,-7 0,-4 3,-8 7,-8 4,0 7,4 7,8z"/>
    <path class="fil7" d="M2758 1380c0,5 -3,8 -7,8 -4,0 -7,-3 -7,-8 0,-4 3,-7 7,-7 4,0 7,3 7,7z"/>
   </g>
   <g>
    <path class="fil8" d="M3088 3235c-78,15 -215,25 -372,25 -114,0 -218,-5 -296,-14 6,3 8,7 8,10 0,29 -196,53 -439,53 -85,0 -164,-3 -232,-8 -52,22 -220,38 -419,38 145,9 246,27 246,48 0,29 -197,53 -439,53 -242,0 -439,-24 -439,-53 0,-29 196,-53 437,-53 -146,-9 -246,-27 -246,-48 0,-20 95,-38 234,-47 -58,-9 -93,-20 -93,-32 0,-29 197,-53 439,-53 234,0 425,22 438,50 24,-1 49,-1 74,-1 114,0 218,5 296,14 -5,-3 -8,-7 -8,-10 0,-26 154,-48 358,-52 -3,-3 -5,-5 -5,-8 0,-5 5,-9 14,-13 -139,-9 -234,-27 -234,-47 0,-30 196,-53 439,-53 242,0 439,23 439,53 0,4 -5,9 -14,13 139,9 234,27 234,47 0,17 -65,32 -166,42 3,2 5,4 5,6 0,20 -111,36 -259,40z"/>
   </g>
   <g>
    <polygon class="fil9" points="3112,2509 2972,2509 2972,2483 3112,2483 "/>
    <g>
     <polygon class="fil10" points="2779,2462 2433,2462 2433,2483 2779,2483 "/>
     <polygon class="fil10" points="2232,2483 2563,2483 2509,2258 2179,2258 "/>
     <polygon class="fil11" points="2232,2483 2543,2483 2490,2258 2179,2258 "/>
     <path class="fil10" d="M2338 2361c0,12 9,21 20,21 10,0 19,-9 19,-21 0,-11 -9,-21 -19,-21 -11,0 -20,10 -20,21z"/>
    </g>
    <g>
     <path class="fil3" d="M2508 2394c0,0 -15,89 -35,89 -20,0 -36,0 -36,0 0,0 -16,0 -37,0 -20,0 -35,-89 -35,-89l143 0z"/>
     <path class="fil3" d="M2492 2473c-3,0 -5,-1 -8,-1l2 -14c26,4 36,-14 38,-19 4,-9 3,-16 0,-19 -9,-9 -23,0 -23,1l-7 -12c1,0 23,-15 39,1 7,8 8,21 3,35 -6,14 -21,28 -44,28z"/>
    </g>
    <polygon class="fil1" points="2972,2509 1137,2510 1137,2483 2972,2483 "/>
    <polygon class="fil1" points="1593,3195 1175,3196 1174,2510 1593,2509 "/>
    <polygon class="fil1 str1" points="1826,3195 1593,3195 1593,2509 1826,2509 "/>
    <g>
     <g>
      <polygon class="fil1" points="1552,2847 1215,2847 1215,2620 1552,2620 "/>
      <polygon class="fil9" points="1407,2729 1324,2729 1324,2684 1407,2684 "/>
     </g>
     <g>
      <polygon class="fil0" points="1552,3122 1215,3122 1215,2895 1552,2895 "/>
      <g>
       <polygon class="fil9" points="1407,3004 1324,3004 1324,2959 1407,2959 "/>
       <polygon class="fil0" points="1432,3001 1349,3001 1349,2962 1432,2962 "/>
      </g>
     </g>
    </g>
    <polygon class="fil1" points="2839,3195 2421,3195 2421,2509 2839,2509 "/>
    <polygon class="fil9" points="3073,3195 2839,3195 2839,2509 3073,2509 "/>
    <g>
     <g>
      <polygon class="fil3" points="1559,2483 1380,2483 1380,2299 1559,2299 "/>
      <polygon class="fil12" points="1627,2483 1559,2483 1559,2299 1627,2299 "/>
      <polygon class="fil12" points="1380,2391 1559,2391 1419,2396 "/>
      <polygon class="fil12" points="1559,2461 1380,2461 1520,2466 "/>
      <polygon class="fil12" points="1380,2340 1493,2340 1393,2344 "/>
      <polygon class="fil12" points="1559,2434 1446,2434 1546,2438 "/>
      <polygon class="fil12" points="1423,2320 1551,2319 1529,2322 "/>
      <polygon class="fil12" points="1398,2411 1525,2411 1504,2413 "/>
      <polygon class="fil3" points="1476,2357 1559,2357 1574,2364 "/>
      <polygon class="fil3" points="1358,2357 1440,2357 1455,2364 "/>
      <polygon class="fil3" points="1464,2440 1381,2440 1366,2446 "/>
      <polygon class="fil12" points="1559,2419 1625,2419 1640,2425 "/>
      <polygon class="fil12" points="1582,2391 1633,2391 1627,2386 "/>
     </g>
     <g>
      <polygon class="fil13" points="2252,2425 1954,2425 1954,2349 2252,2349 "/>
      <polygon class="fil14" points="2204,2425 2140,2425 2140,2349 2204,2349 "/>
      <polygon class="fil14" points="2088,2425 2050,2425 2050,2349 2088,2349 "/>
     </g>
     <g>
      <polygon class="fil10" points="1942,2425 2237,2425 2237,2483 1942,2483 "/>
      <polygon class="fil15" points="2172,2425 2210,2425 2210,2483 2172,2483 "/>
      <polygon class="fil15" points="1972,2425 2010,2425 2010,2483 1972,2483 "/>
     </g>
     <g>
      <polygon class="fil4" points="2222,2350 1957,2350 1957,2305 2222,2305 "/>
      <polygon class="fil6" points="2016,2350 1982,2350 1982,2305 2016,2305 "/>
      <polygon class="fil6" points="2195,2350 2161,2350 2161,2305 2195,2305 "/>
     </g>
    </g>
    <g>
     <g>
      <path class="fil16 str2" d="M1790 2483l-112 0 -6 -23 -48 -187c-2,-8 4,-17 12,-17l103 0c5,0 10,4 12,10l51 200c2,9 -4,17 -12,17z"/>
      <path class="fil10" d="M1778 2466c2,9 -3,17 -12,17l-78 0c-6,0 -12,-4 -14,-11l-50 -197c-2,-9 4,-19 14,-19l77 0c6,0 11,4 12,10l51 200z"/>
      <path class="fil10" d="M1701 2483l-189 0c-6,0 -11,-5 -11,-11 0,-6 5,-12 11,-12l183 0 6 23z"/>
     </g>
     <path class="fil9" d="M1587 2483l-231 0c-5,0 -10,-5 -10,-11 0,-6 4,-11 10,-11l231 -6c6,0 11,5 11,11l0 6c0,6 -5,11 -11,11z"/>
     <path class="fil11" d="M1940 2112l-49 264c-2,13 -12,22 -25,22l-363 0c-16,0 -28,-15 -25,-32l48 -264c2,-13 13,-22 25,-22l364 0c16,0 28,15 25,32z"/>
     <path class="fil3" d="M1504 2357c3,9 12,16 22,16l323 0c10,0 18,-6 21,-16 0,-1 1,-2 1,-3l42 -227c1,-1 1,-2 1,-3 1,-13 -10,-25 -23,-25l-322 0c-11,0 -21,8 -23,19l-1 6 -41 221c-1,4 -1,8 0,12z"/>
     <polygon class="fil13" points="1888,2161 1743,2161 1712,2320 1854,2320 "/>
     <g>
      <path class="fil16" d="M1797 2483c0,0 -121,0 -133,0 -11,0 5,-34 47,-47 41,-14 99,34 86,47z"/>
      <g>
       <path class="fil10" d="M1745 2483c-6,-8 -5,-18 -1,-25 5,-8 13,-14 23,-12 -3,9 -5,14 -8,20 -4,5 -7,11 -14,17z"/>
      </g>
      <g>
       <path class="fil10" d="M1760 2450c11,-2 20,1 27,7 4,3 7,6 9,11 2,4 4,10 1,15 -4,-3 -8,-5 -11,-7 -3,-2 -6,-4 -9,-6 -6,-5 -12,-10 -17,-20z"/>
      </g>
     </g>
     <g>
      <line class="fil0" x1="1568" y1="2165" x2="1709" y2= "2165" />
      <line class="fil0" x1="1563" y1="2186" x2="1704" y2= "2186" />
      <line class="fil0" x1="1559" y1="2208" x2="1651" y2= "2208" />
      <line class="fil0" x1="1550" y1="2251" x2="1691" y2= "2251" />
      <line class="fil0" x1="1547" y1="2273" x2="1671" y2= "2273" />
      <line class="fil0" x1="1542" y1="2295" x2="1606" y2= "2295" />
      <line class="fil0" x1="1620" y1="2295" x2="1684" y2= "2295" />
      <line class="fil0" x1="1538" y1="2316" x2="1660" y2= "2316" />
     </g>
     <path class="fil10" d="M1545 2124l369 0c1,-13 -10,-25 -23,-25l-322 0c-11,0 -21,8 -23,19l-1 6z"/>
     <path class="fil9" d="M1504 2357c3,9 12,16 22,16l323 0c10,0 18,-6 21,-16l-366 0z"/>
     <polygon class="fil9" points="1825,2116 1895,2116 1896,2107 1826,2107 "/>
     <polygon class="fil9" points="1740,2116 1809,2116 1811,2107 1741,2107 "/>
     <polygon class="fil9" points="1654,2116 1724,2116 1726,2107 1656,2107 "/>
     <polygon class="fil9" points="1569,2116 1591,2116 1592,2107 1571,2107 "/>
    </g>
    <g>
     <path class="fil17" d="M1843 2394c0,0 16,89 36,89 20,0 36,0 36,0 0,0 16,0 36,0 20,0 36,-89 36,-89l-144 0z"/>
     <path class="fil17" d="M1860 2473c2,0 5,-1 7,-1l-1 -13c-27,3 -36,-15 -39,-20 -3,-9 -2,-16 0,-19 9,-9 23,0 24,1l6 -12c0,0 -22,-15 -38,1 -8,8 -9,22 -3,35 6,14 20,28 44,28z"/>
    </g>
   </g>
   <g>
    <path class="fil18" d="M1491 1770l170 0c57,0 103,-47 103,-104l0 -41c0,-58 -46,-104 -103,-104l-170 0c-57,0 -104,46 -104,104l0 41c0,57 47,104 104,104z"/>
    <path class="fil18 str3" d="M1764 1727l25 60c5,10 -5,20 -14,16l-63 -33 52 -43z"/>
    <g>
     <line class="fil0" x1="1433" y1="1566" x2="1719" y2= "1566" />
     <line class="fil0" x1="1433" y1="1598" x2="1543" y2= "1598" />
     <line class="fil0" x1="1567" y1="1598" x2="1719" y2= "1598" />
     <line class="fil0" x1="1433" y1="1630" x2="1622" y2= "1630" />
     <line class="fil0 str4" x1="1433" y1="1662" x2="1719" y2= "1662" />
     <line class="fil0" x1="1433" y1="1694" x2="1617" y2= "1694" />
     <line class="fil0" x1="1643" y1="1694" x2="1719" y2= "1694" />
     <line class="fil0" x1="1433" y1="1726" x2="1576" y2= "1726" />
    </g>
   </g>
   <g>
    <g>
     <path class="fil2" d="M2205 3162l-103 5c0,0 -89,40 -88,66 1,25 186,7 194,1 8,-6 -3,-72 -3,-72z"/>
     <path class="fil15" d="M2208 3231c-34,7 -68,10 -103,10 -31,1 -62,1 -92,-10 -7,-2 -12,10 -5,13 31,13 63,12 95,12 37,-1 73,-4 109,-11 9,-2 5,-16 -4,-14z"/>
     <g>
      <path class="fil15" d="M2112 3182c-4,-11 -21,-24 -32,-14 -1,2 0,4 1,5 4,2 9,3 13,6 4,2 6,6 9,9 4,4 11,0 9,-6z"/>
      <path class="fil15" d="M2098 3191c-4,-11 -21,-25 -31,-14 -2,1 -1,4 0,5 4,2 9,3 13,5 4,3 6,6 9,10 4,4 11,-1 9,-6z"/>
      <path class="fil15" d="M2084 3199c-4,-11 -21,-24 -31,-14 -2,2 -1,4 0,5 5,2 9,3 13,6 4,2 6,6 10,9 3,4 10,0 8,-6z"/>
     </g>
    </g>
    <path class="fil10" d="M2221 2338l-360 2c0,0 70,197 87,246 17,50 23,191 38,278 5,28 38,274 71,302 33,27 145,16 161,-4 16,-20 -31,-330 -29,-359 1,-28 5,-208 10,-231 21,-95 24,-213 22,-234z"/>
    <g>
     <path class="fil2" d="M1999 3157l-103 0c0,0 -91,37 -91,63 0,25 186,15 194,9 8,-5 0,-72 0,-72z"/>
     <path class="fil15" d="M2000 3226c-35,6 -68,7 -103,6 -32,0 -62,-2 -92,-14 -7,-2 -12,10 -5,13 29,14 62,15 94,15 37,1 73,0 110,-6 8,-2 4,-15 -4,-14z"/>
     <g>
      <path class="fil15" d="M1905 3173c-3,-11 -20,-25 -31,-15 -1,2 -1,4 1,5 4,2 9,3 13,6 3,3 5,7 8,10 4,4 11,0 9,-6z"/>
      <path class="fil15" d="M1891 3181c-4,-11 -20,-25 -31,-15 -1,2 -1,4 1,5 4,2 8,3 12,6 4,3 6,6 9,10 4,4 11,0 9,-6z"/>
      <path class="fil15" d="M1877 3189c-4,-11 -20,-25 -31,-15 -1,1 -1,4 1,5 4,2 8,3 12,6 4,2 6,6 9,10 4,4 11,0 9,-6z"/>
     </g>
    </g>
    <path class="fil10" d="M2221 2338l-360 2c0,0 -28,402 -25,471 4,70 9,332 25,352 17,19 128,16 144,0 16,-16 17,-321 20,-337 1,-8 -11,-153 24,-212 83,-139 172,-276 172,-276z"/>
    <g>
     <path class="fil19" d="M2020 3049c-22,-82 -35,-167 -44,-252 -9,-82 -24,-247 -24,-249 -22,-38 -42,-78 -61,-118 0,-2 -2,-1 -2,1 18,41 37,81 59,120 0,1 14,172 23,256 10,82 22,164 45,244 1,2 5,1 4,-2z"/>
     <path class="fil19" d="M2146 2450c-18,-8 -39,-10 -53,-25 -14,-16 -21,-37 -28,-57 -1,-2 -5,-1 -4,2 5,20 11,42 25,59 15,18 37,21 58,26 2,1 4,-4 2,-5z"/>
     <path class="fil19" d="M2169 2935c-8,-67 -19,-133 -16,-200 2,-66 5,-132 13,-198 7,-61 23,-123 11,-185 0,-1 -2,-1 -2,1 10,66 -7,132 -14,197 -7,65 -10,130 -12,195 -2,62 8,123 16,185 8,67 18,143 27,210 0,1 2,0 1,-1 -7,-66 -16,-139 -24,-204z"/>
     <path class="fil19" d="M1989 2963c-6,58 -13,118 -14,177 0,2 2,1 3,0 7,-58 8,-119 11,-177 0,-1 0,-1 0,0z"/>
    </g>
   </g>
   <g>
    <g>
     <path class="fil14" d="M1998 2040c-23,129 -40,207 -48,227 -18,47 -228,168 -259,164 -32,-4 -67,-43 -50,-64 16,-22 183,-125 186,-138 4,-20 31,-110 62,-207 20,-65 126,-76 109,18z"/>
     <g>
      <path class="fil5" d="M1679 2446c0,0 -39,15 -49,20 -10,6 -20,10 -24,5 -8,-9 22,-27 16,-28 -2,0 31,-18 31,-18l26 21z"/>
      <polygon class="fil3" points="1662,2670 1411,2604 1456,2408 1707,2474 "/>
      <path class="fil5" d="M1543 2461c0,1 1,2 2,2 1,2 3,4 6,5 0,1 1,1 2,2 2,1 4,3 7,4 0,0 1,1 2,1 4,2 7,2 9,2 15,-5 30,-24 40,-27 19,-5 30,7 58,-1 28,-7 42,-24 47,-28 0,0 -64,-62 -67,-62 -4,1 -38,26 -54,35 -31,18 -54,54 -56,60 -1,2 1,4 4,7z"/>
      <g>
       <path class="fil2" d="M1543 2461c0,1 1,2 2,2 11,-15 22,-30 36,-43 0,0 0,-1 -1,0 -15,12 -26,26 -37,41z"/>
       <path class="fil2" d="M1551 2468c0,1 1,1 2,2 11,-15 23,-30 36,-43 0,0 0,-1 -1,-1 -14,12 -26,27 -37,42z"/>
       <path class="fil2" d="M1560 2474c0,0 1,1 2,1 11,-15 22,-29 35,-41 0,-1 0,-1 -1,-1 -14,12 -25,26 -36,41z"/>
      </g>
     </g>
     <path class="fil3" d="M1818 2218c-2,5 -158,115 -170,130 -11,15 44,105 67,98 23,-7 237,-137 243,-169 6,-32 47,-182 52,-252 5,-82 -104,-103 -148,41 -25,84 -40,143 -44,152z"/>
    </g>
    <g>
     <path class="fil3" d="M1988 1902c-31,10 -60,38 -74,72 -18,47 -78,240 -100,327 -23,90 2,155 13,167 38,38 134,45 225,34 91,-11 166,-33 195,-85 18,-35 -26,-185 -46,-234 -20,-48 -62,-195 -94,-245 -12,-20 -38,-60 -119,-36z"/>
    </g>
    <g>
     <path class="fil20" d="M2094 2227c-10,-48 -28,-93 -47,-137 -1,-1 -2,0 -1,0 4,12 8,24 12,36 -1,-1 -1,-2 -2,-3 -2,-3 -4,-6 -7,-8 0,-1 -1,0 -1,0 1,4 4,7 6,10 2,3 4,7 7,10 0,0 0,0 0,0 10,31 19,63 29,94 0,0 0,0 0,0 -26,35 -54,67 -82,100 -14,16 -28,31 -41,49 -6,9 -14,20 -7,31 2,2 4,0 3,-2 -8,-16 22,-44 32,-55 11,-14 24,-27 36,-41 22,-25 45,-51 62,-81 0,-1 1,-1 1,-1 0,0 0,0 0,-1 0,0 0,-1 0,-1z"/>
     <path class="fil20" d="M2233 2293c-30,34 -60,66 -92,97 -16,15 -32,30 -49,44 -17,16 -42,50 -67,36 -1,-1 -2,1 -1,1 10,12 25,7 36,-1 21,-16 40,-36 60,-54 41,-38 81,-76 115,-121 1,-1 -1,-3 -2,-2z"/>
     <path class="fil20" d="M1889 2049c1,-2 -1,-2 -2,-1 -3,10 -6,19 -9,28 0,-4 0,-9 0,-13 0,0 0,0 0,0 -2,10 -4,20 -6,30 -14,44 -26,90 -40,135 -16,53 -37,112 -28,168 0,2 2,1 2,0 -2,-62 16,-118 33,-176 17,-57 36,-113 50,-171z"/>
    </g>
    <g>
     <path class="fil20" d="M1957 1981c0,0 -2,-1 -2,0 -16,92 -32,183 -51,273 -16,82 -30,166 -7,248 0,2 3,1 3,-1 -24,-87 -7,-176 11,-261 18,-86 35,-172 46,-259z"/>
     <path class="fil20" d="M1906 2413c-7,0 -7,12 0,12 7,0 7,-12 0,-12z"/>
     <path class="fil20" d="M1914 2332c-7,0 -7,12 0,12 7,0 7,-12 0,-12z"/>
     <path class="fil20" d="M1927 2251c-7,0 -7,13 0,13 7,0 7,-13 0,-13z"/>
     <path class="fil20" d="M1940 2174c-7,0 -7,12 0,12 7,0 7,-12 0,-12z"/>
     <path class="fil20" d="M1955 2093c-7,0 -7,12 0,12 7,0 7,-12 0,-12z"/>
     <path class="fil20" d="M1965 2019c-7,0 -7,12 0,12 7,0 7,-12 0,-12z"/>
    </g>
    <g>
     <path class="fil14" d="M2147 1992c48,87 90,221 95,257 6,51 -192,214 -224,216 -31,3 -73,-27 -61,-52 12,-24 159,-162 157,-175 -3,-19 -50,-115 -72,-211 -16,-66 60,-114 105,-35z"/>
     <g>
      <path class="fil5" d="M1879 2527c1,1 1,1 2,2 2,1 5,2 7,3 1,1 2,1 2,1 3,1 5,2 8,3 1,0 2,0 3,0 3,1 7,1 9,0 14,-7 25,-30 34,-34 17,-9 31,-1 57,-14 25,-13 37,-32 41,-38 0,0 -75,-47 -78,-46 -3,2 -33,33 -47,46 -27,24 -42,64 -43,71 0,2 2,4 5,6z"/>
      <g>
       <path class="fil2" d="M1879 2527c1,1 1,1 2,2 8,-17 17,-35 28,-50 0,-1 -1,-1 -1,-1 -12,15 -21,32 -29,49z"/>
       <path class="fil2" d="M1888 2532c1,1 2,1 2,1 9,-17 17,-34 28,-49 0,-1 0,-1 -1,-1 -12,15 -21,32 -29,49z"/>
       <path class="fil2" d="M1898 2536c1,0 2,0 3,0 7,-16 16,-33 26,-48 0,0 0,0 -1,0 -12,14 -20,31 -28,48z"/>
      </g>
      <path class="fil5" d="M1953 2416c0,0 -40,16 -51,18 -11,2 -20,5 -21,13 0,12 34,5 29,10 -2,2 35,-6 35,-6l8 -35z"/>
     </g>
     <path class="fil3" d="M2098 2223c3,5 -128,153 -137,170 -8,17 62,94 84,82 21,-12 207,-185 207,-218 0,-33 -74,-267 -131,-301 -56,-33 -115,18 -74,128 38,99 45,130 51,139z"/>
    </g>
   </g>
   <g>
    <path class="fil7" d="M1981 1949c-5,0 -18,-2 -21,-1 -3,1 -14,15 -15,17 -1,2 2,16 3,18 2,1 19,4 21,3 1,-1 13,-12 15,-18 3,-6 -3,-19 -3,-19z"/>
    <path class="fil7" d="M1948 1983c0,0 -50,134 -55,167 -2,18 7,125 12,130 5,5 54,-112 56,-122 2,-20 8,-172 8,-172l-21 -3z"/>
   </g>
   <path class="fil5" d="M2040 1815c0,1 0,2 0,4 0,1 0,2 0,3 1,23 4,64 3,78 -1,8 -39,48 -58,52 -25,4 -22,-19 -20,-34 1,-4 1,-8 1,-10 -1,-4 -2,-13 -3,-15 0,0 0,0 -1,0 -30,5 -75,-4 -89,-42 -4,-10 -7,-23 -9,-39l0 0c-2,-21 -1,-44 2,-66 3,-21 10,-40 19,-51 29,-34 115,-32 137,-12 19,18 18,99 18,132z"/>
   <path class="fil7" d="M1884 1788c0,4 -2,7 -4,8 -3,0 -5,-2 -6,-6 0,-4 1,-7 4,-7 3,-1 5,2 6,5z"/>
   <path class="fil7" d="M1942 1786c0,3 -2,7 -4,7 -3,0 -5,-2 -6,-6 0,-3 1,-7 4,-7 3,-1 5,2 6,6z"/>
   <path class="fil14" d="M1890 1754c1,3 -4,7 -11,9 -6,1 -12,-1 -13,-4 -1,-4 4,-8 11,-9 7,-2 13,0 13,4z"/>
   <path class="fil14" d="M1949 1755c0,3 -6,5 -13,4 -7,-1 -12,-5 -11,-8 0,-4 6,-6 13,-5 7,2 12,5 11,9z"/>
   <path class="fil2" d="M1906 1808c-1,1 -6,4 -8,2 -3,-2 0,-42 0,-51 0,-2 -1,-2 -2,-1 -2,16 -6,57 1,57 4,0 9,-2 11,-5 1,-1 0,-3 -2,-2z"/>
   <path class="fil7" d="M1910 1837c0,0 0,1 1,2 0,1 1,2 2,2 0,1 1,2 2,2 4,2 10,0 13,-1 5,-2 10,-6 10,-11 0,-1 0,-2 0,-2 0,-1 0,-1 0,-1 0,-1 0,-2 0,-2l-1 0c-1,-4 -4,-6 -7,-5 -4,1 -5,4 -8,4 -4,1 -7,1 -10,4 -3,2 -3,5 -2,8z"/>
   <path class="fil21" d="M1915 1843c4,2 10,0 13,-1 5,-2 10,-6 10,-11 -2,-2 -5,-2 -8,-2 -8,1 -14,7 -15,14z"/>
   <path class="fil14" d="M2041 1802c-25,-3 -37,-87 -37,-87 0,0 -76,-28 -131,7 -9,6 -19,-29 -7,-47 0,0 -19,-27 5,-60 4,-6 0,25 36,27 0,0 -11,-13 -5,-29 2,-5 23,21 53,19 29,-2 86,-4 96,54 0,0 17,1 16,33 -2,32 -6,85 -26,83z"/>
   <path class="fil5" d="M2015 1776c0,0 10,-14 28,-12 20,3 30,37 5,50 -11,6 -25,2 -25,2l-8 -40z"/>
   <path class="fil2" d="M2029 1802c-1,-11 4,-26 16,-28 0,0 1,1 0,1 -9,4 -11,17 -11,24 5,-4 14,-5 19,1 0,1 -1,1 -1,1 -6,-4 -16,0 -18,6 -2,4 -4,1 -5,-5z"/>
   <g>
    <g>
     <path class="fil3" d="M1967 1947c0,0 -5,-17 -1,-36 0,0 -19,16 -22,24 -2,3 -7,14 -2,43 0,0 12,-26 25,-31z"/>
     <path class="fil3" d="M2043 1895c0,0 14,28 13,36 -2,9 -50,50 -75,59 0,0 -3,-31 -14,-43 0,0 48,-7 76,-52z"/>
    </g>
   </g>
   <g>
    <path class="fil20" d="M2046 1897c0,0 -1,0 0,1 9,19 9,35 9,35 -11,13 -44,47 -72,58 0,-3 -3,-12 -4,-15 0,0 0,0 0,1 -1,4 3,18 3,18 0,1 50,-23 75,-61 1,-1 -2,-23 -11,-37z"/>
    <path class="fil20" d="M1946 1970c-2,2 -3,5 -4,7 -3,-15 -3,-32 4,-45 1,-1 -1,-2 -1,-1 -12,13 -10,37 -5,53 0,1 6,-9 6,-13 0,0 0,-1 0,-1z"/>
   </g>
   <g>
    <g>
     <g>
      <g>
       <path class="fil15" d="M1430 3308c-4,10 -133,12 -139,5 -4,-5 -1,-18 0,-29 0,-1 0,-2 0,-2l0 0c0,-4 -1,-7 -1,-10 -66,-246 14,-332 6,-355 -8,-23 -309,4 -377,-88 -31,-42 -11,-145 69,-142 183,5 408,121 418,148 9,26 -44,426 -41,432 2,4 23,9 40,19 0,0 1,1 2,1l0 0c13,8 24,16 23,21z"/>
       <path class="fil4" d="M1430 3308c-4,10 -133,12 -139,5 -4,-5 -1,-18 0,-29 0,-1 0,-2 0,-2l0 0c5,6 137,24 116,5 13,8 24,16 23,21z"/>
      </g>
      <path class="fil7" d="M914 2671c0,0 -65,101 14,183 79,82 345,71 348,74 3,4 -47,143 -21,325 1,12 96,22 135,5 5,-2 52,-405 23,-450 -25,-36 -165,-79 -280,-111 -28,-8 -31,-50 -31,-50l-188 24z"/>
     </g>
     <g>
      <g>
       <path class="fil15" d="M1635 3251c-2,11 -133,18 -139,12 -3,-3 -2,-17 -2,-29l0 0c1,-9 1,-16 -1,-18 -145,-121 -226,-308 -226,-308 -7,-5 -189,9 -284,-80 -46,-44 -24,-146 56,-141 119,7 315,92 328,117 13,24 197,406 201,412 2,2 17,8 33,14 2,1 5,2 7,3 15,7 28,13 27,18z"/>
       <path class="fil4" d="M1635 3251c-2,11 -133,18 -139,12 -3,-3 -2,-17 -2,-29l0 0c0,0 136,23 107,-4 2,1 5,2 7,3 15,7 28,13 27,18z"/>
      </g>
      <path class="fil7" d="M1272 2920c-3,-17 -212,-1 -289,-85 -78,-85 -14,-168 83,-157 97,12 290,104 303,112 13,8 186,389 194,398 7,10 -62,35 -141,22 -27,-4 -138,-201 -150,-290z"/>
     </g>
    </g>
    <g>
     <path class="fil13" d="M1421 2898c0,0 -2,0 -2,0 -5,96 -6,192 -19,287 -1,2 2,2 2,0 11,-94 23,-191 19,-287z"/>
     <path class="fil13" d="M1314 2900c0,-1 -85,-2 -127,-5 -42,-4 -86,-8 -127,-21 -37,-11 -72,-32 -97,-65 -28,-37 -28,-79 -24,-124 0,-1 -1,-1 -1,0 -6,42 -6,81 18,118 19,31 49,52 82,65 41,17 87,22 131,26 48,5 96,7 144,8 -30,108 -42,222 -38,335 0,2 3,2 3,0 -9,-156 36,-337 36,-337z"/>
     <path class="fil13" d="M1448 3195c-11,-18 -24,-35 -35,-53 0,-1 -1,0 -1,0 11,19 22,37 35,54 1,0 2,-1 1,-1z"/>
    </g>
   </g>
   <g>
    <path class="fil15" d="M983 2228c4,17 12,64 16,77 3,7 54,31 73,30 31,-3 -2,-36 -2,-42 0,-1 0,-1 0,-1 0,-4 0,-8 -1,-12 0,-8 -2,-16 -2,-17 0,-1 0,-1 0,-1 0,0 61,7 69,-42 6,-35 -12,-118 -41,-138 -34,-24 -110,1 -125,24 -13,21 6,93 13,122z"/>
    <path class="fil15" d="M1129 2147c0,0 20,47 15,49 -5,2 -11,0 -11,0l-4 -49z"/>
    <g>
     <path class="fil7" d="M1111 2175c1,4 3,6 5,6 3,0 5,-3 4,-7 0,-3 -2,-6 -5,-6 -2,1 -4,4 -4,7z"/>
     <path class="fil7" d="M1098 2150c1,3 7,3 12,0 6,-3 10,-7 9,-10 -2,-3 -7,-4 -13,-1 -6,3 -9,7 -8,11z"/>
     <path class="fil22" d="M1109 2208c4,8 13,10 20,5 0,0 1,1 0,1 -7,7 -18,5 -22,-5 0,-2 1,-2 2,-1z"/>
    </g>
    <path class="fil7" d="M978 2228c11,14 57,29 73,-24 16,-54 17,-78 18,-86 0,0 3,20 6,23 3,2 19,-15 48,-21 8,-2 -11,-52 -40,-56 -29,-4 -86,19 -86,19 0,0 -38,9 -42,41 -4,33 16,94 23,104z"/>
   </g>
   <g>
    <g>
     <path class="fil6" d="M1161 2452c7,49 -23,80 -23,80l-8 115c0,0 21,34 16,47 -24,62 -189,80 -242,-14 -15,-27 21,-31 18,-59 -7,-78 -12,-237 64,-299 0,0 0,0 0,0 1,-1 2,-1 2,-2 5,-7 -4,-23 0,-29 6,-10 38,9 87,-5 12,-3 6,34 19,44 15,17 65,103 67,122z"/>
    </g>
    <g>
     <path class="fil5" d="M1041 2449c48,71 100,143 120,161 28,24 233,-75 248,-96 14,-21 8,-59 -12,-62 -19,-4 -174,79 -181,72 -11,-9 -59,-104 -107,-141 -46,-36 -107,8 -68,66z"/>
     <path class="fil6" d="M1045 2468c36,58 91,126 117,148 27,24 212,-46 218,-48 7,-3 1,-97 -21,-112 -4,-3 -139,53 -143,51 -4,-2 -45,-71 -109,-136 -41,-41 -116,10 -62,97z"/>
     <g>
      <path class="fil5" d="M1492 2438c0,1 0,2 0,3 0,1 0,4 0,6 0,0 0,1 0,2 -1,2 -1,4 -2,6 0,1 0,2 0,2 -1,3 -3,6 -4,7 -10,7 -28,7 -34,11 -12,9 -12,22 -30,36 -17,13 -34,14 -39,15 0,0 -1,-71 1,-73 2,-1 33,-11 46,-16 25,-11 55,-6 60,-5 1,1 2,3 2,6z"/>
      <g>
       <path class="fil2" d="M1492 2438c0,1 0,2 0,3 -14,-1 -28,-1 -41,0 -1,0 -1,0 0,0 13,-3 27,-3 41,-3z"/>
       <path class="fil2" d="M1492 2447c0,0 0,1 0,2 -14,-1 -28,-1 -42,1 0,0 0,-1 0,-1 14,-3 28,-3 42,-2z"/>
       <path class="fil2" d="M1490 2455c0,1 0,2 0,2 -14,0 -27,0 -40,1 0,0 0,0 0,0 13,-4 27,-3 40,-3z"/>
      </g>
      <path class="fil5" d="M1395 2450c0,0 25,-23 30,-30 6,-7 11,-13 16,-10 8,4 -9,26 -5,24 2,0 -16,23 -16,23l-25 -7z"/>
     </g>
    </g>
    <g>
     <path class="fil4" d="M1133 2586c-33,-37 -69,-72 -105,-104 -1,0 -1,1 -1,1 7,8 14,15 21,23 -5,-2 -9,-4 -13,-6 -1,0 -1,1 0,1 4,2 8,5 11,7 4,3 7,6 11,8 24,25 48,49 74,72 1,1 3,-1 2,-2z"/>
     <path class="fil4" d="M1114 2376c-1,-1 -1,0 -1,1 10,13 20,26 32,36 1,1 1,0 1,0 -9,-14 -21,-26 -32,-37z"/>
     <g>
      <path class="fil4" d="M998 2308c-1,-3 -2,-7 -3,-10 -1,-2 -2,-1 -2,0 0,4 1,8 1,11 1,3 0,6 2,9 0,1 2,1 2,0 2,-3 0,-7 0,-10z"/>
      <path class="fil4" d="M1005 2299c-1,-2 -3,-1 -3,0 0,6 0,13 2,19 0,2 3,2 3,-1 1,-6 -1,-12 -2,-18z"/>
      <path class="fil4" d="M1014 2300c-1,-2 -4,-1 -3,1 1,5 1,11 3,16 0,3 3,2 3,0 0,-6 -1,-12 -3,-17z"/>
      <path class="fil4" d="M1027 2311c-1,-4 -2,-7 -3,-10 0,-2 -3,-1 -3,1 1,3 1,6 2,10 0,2 0,5 1,7 1,0 2,0 3,-1 1,-2 0,-5 0,-7z"/>
      <path class="fil4" d="M1037 2309c0,-2 -1,-5 -2,-8 0,-2 -3,-1 -3,1 0,5 0,12 2,16 1,3 4,1 4,-1 1,-2 0,-5 -1,-8z"/>
      <path class="fil4" d="M1045 2301c0,-1 -2,-1 -2,1 0,5 0,11 2,16 0,2 3,2 3,-1 0,-5 -2,-10 -3,-16z"/>
      <path class="fil4" d="M1056 2300c0,-1 -3,-1 -3,1 0,5 0,12 2,17 1,3 5,2 4,-1 -1,-6 -2,-11 -3,-17z"/>
      <path class="fil4" d="M1067 2307c-1,-3 -1,-6 -2,-9 0,-1 -2,-1 -2,1 0,3 0,6 0,9 1,3 1,5 2,8 1,2 4,1 4,-1 0,-3 -1,-6 -2,-8z"/>
      <path class="fil4" d="M1078 2304c-1,-3 -1,-6 -2,-9 0,-1 -3,-1 -3,1 0,3 1,6 1,9 0,3 0,5 1,8 1,1 4,1 4,-1 0,-3 0,-5 -1,-8z"/>
     </g>
    </g>
   </g>
   <path class="fil7" d="M960 2175c5,20 -10,129 -29,171 -17,40 -5,94 58,105 63,10 98,-37 93,-98 -6,-62 -28,-153 -25,-185 4,-31 -97,7 -97,7z"/>
   <g>
    <path class="fil15" d="M1073 2179c0,0 -10,-12 -26,-8 -19,4 -25,37 -1,46 11,5 23,-1 23,-1l4 -37z"/>
    <path class="fil22" d="M1062 2204c1,-11 -6,-24 -17,-24 0,0 0,1 0,1 9,3 12,14 13,21 -5,-3 -14,-4 -17,3 0,0 0,1 0,0 6,-4 15,-1 18,4 1,3 3,1 3,-5z"/>
   </g>
   <g>
    <path class="fil6" d="M985 2190c0,6 -4,11 -10,11 -6,0 -10,-5 -10,-11 0,-6 4,-11 10,-11 6,0 10,5 10,11z"/>
    <path class="fil6" d="M974 2188c0,0 -17,-25 -22,-22 -6,2 -4,35 4,41 8,5 18,-14 18,-14l0 -5z"/>
    <path class="fil6" d="M975 2188c0,0 22,-25 29,-22 8,2 6,35 -5,41 -11,5 -24,-14 -24,-14l0 -5z"/>
   </g>
   <g>
    <g>
     <line class="fil0 str5" x1="945" y1="2927" x2="840" y2= "3391" />
     <line class="fil0 str5" x1="1252" y1="2927" x2="1358" y2= "3391" />
     <line class="fil0 str5" x1="856" y1="2883" x2="751" y2= "3347" />
     <line class="fil0 str5" x1="1163" y1="2883" x2="1269" y2= "3347" />
    </g>
    <path class="fil1" d="M1131 2805c-58,-29 75,-342 42,-464 -32,-122 -485,-137 -514,22 -28,159 94,411 94,472 0,61 6,144 85,144 79,0 364,0 437,0 73,0 89,-118 0,-132 -68,-11 -110,-25 -144,-42z"/>
   </g>
   <g>
    <g>
     <polygon class="fil16" points="3678,2434 3917,2296 3678,2158 3439,2296 3199,2434 3439,2572 3678,2710 3917,2572 "/>
     <polygon class="fil23" points="3678,2090 3678,1078 3917,940 3917,1952 "/>
     <polygon class="fil11" points="3678,1078 3439,940 3439,1952 3678,2090 "/>
     <polygon class="fil16" points="3917,940 3678,802 3439,940 3678,1078 "/>
    </g>
    <g>
     <polygon class="fil24" points="3917,2136 3678,1998 3678,2090 3917,2228 "/>
    </g>
    <g>
     <polygon class="fil25" points="3439,2228 3439,1492 3678,1354 3678,2090 "/>
     <polygon class="fil26" points="3439,1492 3199,1354 3199,2090 3439,2228 "/>
     <polygon class="fil27" points="3678,1354 3439,1216 3199,1354 3439,1492 "/>
     <polygon class="fil11" points="3439,2228 3439,1492 3678,1354 3678,2090 "/>
     <polygon class="fil1" points="3439,1492 3199,1354 3199,2090 3439,2228 "/>
     <polygon class="fil16" points="3678,1354 3439,1216 3199,1354 3439,1492 "/>
    </g>
    <g>
     <polygon class="fil23" points="3678,2366 3678,1952 3917,1814 3917,2228 "/>
     <polygon class="fil11" points="3678,1952 3439,1814 3439,2228 3678,2366 "/>
     <polygon class="fil16" points="3917,1814 3678,1676 3439,1814 3678,1952 "/>
    </g>
   </g>
   <g>
    <polygon class="fil1" points="1904,3498 1897,3470 1977,3449 1984,3477 "/>
    <polygon class="fil1" points="1863,3538 1856,3510 1936,3489 1943,3517 "/>
    <polygon class="fil1" points="1822,3578 1815,3550 1895,3529 1902,3557 "/>
    <polygon class="fil1" points="1781,3618 1773,3590 1854,3570 1861,3597 "/>
   </g>
   <g>
    <g>
     <path class="fil16" d="M4682 4943l-1806 -1043c-51,-29 -44,-81 15,-115l1229 -709c59,-34 148,-38 199,-8l1805 1042c51,29 45,81 -14,115l-1229 709c-59,34 -148,38 -199,9z"/>
     <g>
      <path class="fil23" d="M6191 2060l-1835 -1059c-24,-14 -45,-16 -63,-8l0 -1 -3 2c0,0 0,0 0,0l-60 28 65 33c0,1 0,2 0,3l0 1507c0,76 47,164 104,197l1786 1030 11 84 65 -31c21,-12 35,-41 35,-82l-1 -1507c0,-75 -46,-163 -104,-196z"/>
      <path class="fil11" d="M6191 2060l-1835 -1059c-24,-14 -45,-16 -63,-8l0 -1 -3 2c0,0 0,0 0,0l-60 28 65 33c0,1 0,2 0,3l0 993 835 660 1134 -570c-19,-35 -45,-65 -73,-81z"/>
      <path class="fil28" d="M6222 2083l-180 76 136 105 113 -49c-10,-49 -36,-99 -69,-132z"/>
      <path class="fil16" d="M6131 3868l-1835 -1058c-57,-33 -104,-121 -104,-197l0 -1507c0,-75 46,-110 104,-76l1835 1058c57,33 104,121 104,197l1 1507c0,75 -47,110 -105,76z"/>
      <path class="fil3" d="M6070 3756l-1713 -988c-53,-30 -96,-111 -96,-180l0 -1379c0,-69 42,-100 95,-70l1714 988c52,31 95,111 95,180l1 1379c0,69 -43,101 -96,70z"/>
      <path class="fil3" d="M6070 3756l-1713 -988c-53,-30 -96,-111 -96,-180l0 -1379c0,-69 42,-100 95,-70l1714 988c52,31 95,111 95,180l1 1379c0,69 -43,101 -96,70z"/>
     </g>
     <path class="fil23" d="M6159 3915l-247 -32 -1593 -920c-51,-30 -140,-26 -199,8l-1129 652 -149 -20 0 85 0 0c-1,19 10,38 34,52l1806 1042c51,30 140,26 199,-8l1229 -710c33,-19 50,-43 49,-67l0 -82z"/>
     <path class="fil11" d="M4962 3334l-113 -65 -1244 0 -614 354 -149 -20 0 85 0 0c-1,19 10,38 34,52l1806 1042c27,16 64,22 102,19l178 -1467z"/>
     <path class="fil1" d="M2908 3612l-66 -9 0 85 0 0c-1,19 10,38 34,52l32 18 0 -146z"/>
     <path class="fil28" d="M4700 4791c48,18 117,14 169,-11l0 -189 -169 0 0 200z"/>
     <path class="fil16" d="M4682 4698l-1806 -1043c-51,-29 -44,-81 15,-115l1229 -709c59,-34 148,-38 199,-8l1805 1042c51,29 45,81 -14,115l-1229 709c-59,34 -148,38 -199,9z"/>
     <path class="fil3" d="M6110 3949l-1229 709c-59,34 -148,38 -199,9l-1806 -1043c-16,-9 -27,-21 -31,-34 -8,24 2,48 31,65l1806 1043c51,29 140,25 199,-9l1229 -709c40,-23 55,-54 46,-80 -6,17 -21,35 -46,49z"/>
     <g>
      <path class="fil23" d="M3644 3310l-82 -47c-6,-4 -5,-10 2,-15l97 -55c7,-5 19,-5 25,-1l82 47c7,4 6,10 -2,15l-96 55c-8,5 -19,5 -26,1z"/>
      <path class="fil23" d="M3770 3383l-81 -47c-7,-4 -6,-10 1,-15l97 -55c7,-5 19,-5 25,-2l82 48c7,3 6,10 -2,14l-96 56c-8,4 -19,5 -26,1z"/>
      <path class="fil23" d="M3896 3456l-81 -47c-7,-4 -6,-11 2,-15l96 -56c8,-4 19,-4 26,-1l81 47c7,4 6,11 -2,15l-96 56c-8,4 -19,5 -26,1z"/>
      <path class="fil23" d="M4071 3396l-82 -47c-6,-4 -6,-11 2,-15l81 -47c8,-4 19,-5 26,-1l81 47c7,4 6,11 -2,15l-81 47c-7,4 -19,5 -25,1z"/>
      <path class="fil23" d="M4197 3469l-82 -48c-6,-3 -5,-10 2,-14l81 -47c8,-4 19,-5 26,-1l81 47c7,4 6,10 -1,15l-81 47c-8,4 -19,4 -26,1z"/>
      <path class="fil23" d="M4323 3541l-82 -47c-6,-3 -5,-10 2,-14l81 -47c8,-5 19,-5 26,-1l81 47c7,4 6,10 -1,15l-81 46c-8,5 -19,5 -26,1z"/>
      <path class="fil23" d="M4449 3614l-81 -47c-7,-4 -6,-10 1,-15l81 -46c8,-5 19,-5 26,-1l82 47c6,4 5,10 -2,15l-81 46c-8,5 -19,5 -26,1z"/>
      <path class="fil23" d="M4575 3687l-81 -47c-7,-4 -6,-10 2,-15l81 -47c7,-4 19,-4 25,-1l82 48c6,3 6,10 -2,14l-81 47c-8,4 -19,5 -26,1z"/>
      <path class="fil23" d="M4702 3760l-82 -47c-7,-4 -6,-11 2,-15l81 -47c7,-4 19,-5 25,-1l82 47c6,4 6,11 -2,15l-81 47c-7,4 -19,5 -25,1z"/>
      <path class="fil23" d="M4828 3833l-82 -47c-7,-4 -6,-11 2,-15l81 -47c7,-4 19,-5 25,-1l82 47c7,4 6,11 -2,15l-81 47c-7,4 -19,5 -25,1z"/>
      <path class="fil23" d="M4954 3906l-82 -48c-6,-3 -6,-10 2,-14l81 -47c7,-4 19,-5 26,-1l81 47c7,4 6,10 -2,15l-81 47c-7,4 -19,4 -25,1z"/>
      <path class="fil23" d="M5080 3978l-82 -47c-6,-4 -5,-10 2,-15l81 -46c8,-5 19,-5 26,-1l81 47c7,4 6,10 -2,15l-80 46c-8,5 -19,5 -26,1z"/>
      <path class="fil23" d="M5206 4051l-82 -47c-6,-4 -5,-10 2,-15l81 -46c8,-5 19,-5 26,-1l81 47c7,3 6,10 -1,14l-81 47c-8,5 -19,5 -26,1z"/>
      <path class="fil11" d="M4257 3361l-82 -47c-7,-4 -6,-10 2,-15l81 -46c7,-5 19,-5 25,-1l82 47c7,4 6,10 -2,15l-81 46c-7,5 -19,5 -25,1z"/>
      <path class="fil11" d="M4129 3287l-82 -47c-7,-4 -6,-10 2,-14l81 -47c7,-5 19,-5 25,-1l82 47c7,4 6,10 -2,15l-81 46c-7,5 -19,5 -25,1z"/>
      <path class="fil23" d="M4000 3213l-175 -101c-7,-4 -6,-11 1,-15l81 -47c8,-4 19,-5 26,-1l176 102c6,4 6,10 -2,15l-81 46c-8,5 -19,5 -26,1z"/>
      <path class="fil23" d="M4090 3123l-143 -82c-6,-4 -5,-10 2,-15l81 -47c8,-4 19,-4 26,-1l142 83c7,4 6,10 -1,15l-81 46c-8,5 -19,5 -26,1z"/>
      <path class="fil11" d="M4383 3434l-82 -47c-6,-4 -6,-10 2,-15l81 -46c8,-5 19,-5 26,-2l81 48c7,3 6,10 -2,14l-81 47c-7,4 -19,5 -25,1z"/>
      <path class="fil23" d="M4509 3507l-82 -47c-6,-4 -5,-11 2,-15l81 -47c8,-4 19,-5 26,-1l81 47c7,4 6,11 -1,15l-81 47c-8,4 -19,5 -26,1z"/>
      <path class="fil23" d="M4635 3580l-82 -47c-6,-4 -5,-11 2,-15l81 -47c8,-4 19,-5 26,-1l81 47c7,4 6,11 -1,15l-81 47c-8,4 -19,5 -26,1z"/>
      <path class="fil23" d="M4761 3653l-81 -48c-7,-3 -6,-10 1,-14l81 -47c8,-4 19,-5 26,-1l82 47c6,4 5,10 -2,15l-81 47c-8,4 -19,4 -26,1z"/>
      <path class="fil23" d="M4887 3725l-81 -47c-7,-3 -6,-10 2,-14l80 -47c8,-5 20,-5 26,-1l82 47c6,4 5,10 -2,15l-81 46c-8,5 -19,5 -26,1z"/>
      <path class="fil23" d="M5014 3798l-82 -47c-7,-4 -6,-10 2,-15l81 -46c7,-5 19,-5 25,-1l82 47c6,4 6,10 -2,15l-81 46c-7,5 -19,5 -25,1z"/>
      <path class="fil23" d="M5140 3871l-82 -47c-7,-4 -6,-10 2,-15l81 -47c7,-4 19,-4 25,-1l82 48c7,3 6,10 -2,14l-81 47c-7,4 -19,5 -25,1z"/>
      <path class="fil23" d="M5266 3944l-82 -47c-6,-4 -6,-11 2,-15l81 -47c7,-4 19,-5 25,-1l82 47c7,4 6,11 -2,15l-81 47c-7,4 -19,5 -25,1z"/>
      <path class="fil23" d="M5392 4017l-82 -47c-6,-4 -5,-11 2,-15l81 -47c8,-4 19,-5 26,-1l81 47c7,4 6,11 -2,15l-80 47c-8,4 -19,5 -26,1z"/>
      <path class="fil23" d="M5616 4146l-178 -103c-7,-3 -6,-10 2,-14l81 -47c7,-5 19,-5 25,-1l179 103c6,3 5,10 -2,14l-81 47c-8,5 -19,5 -26,1z"/>
      <path class="fil23" d="M5862 4004l-151 -86c-6,-4 -5,-11 2,-15l81 -47c8,-4 19,-5 26,-1l150 87c7,4 6,10 -2,15l-81 46c-7,5 -19,5 -25,1z"/>
      <path class="fil23" d="M4604 3420l-82 -47c-6,-4 -6,-11 2,-15l81 -47c7,-4 19,-5 25,-1l82 47c7,4 6,11 -2,15l-81 47c-7,4 -19,5 -25,1z"/>
      <path class="fil23" d="M4474 3345l-81 -47c-7,-4 -6,-10 2,-15l81 -46c7,-5 19,-5 25,-1l82 47c6,4 6,10 -2,14l-81 47c-8,5 -19,5 -26,1z"/>
      <path class="fil11" d="M4345 3271l-81 -48c-7,-3 -6,-10 1,-14l81 -47c8,-4 19,-5 26,-1l82 47c6,4 5,10 -2,15l-81 47c-8,4 -19,4 -26,1z"/>
      <path class="fil23" d="M4216 3196l-82 -47c-6,-4 -5,-11 2,-15l81 -47c8,-4 19,-4 26,-1l81 47c7,4 6,11 -2,15l-80 47c-8,4 -20,5 -26,1z"/>
      <path class="fil23" d="M4730 3493l-82 -47c-6,-4 -6,-11 2,-15l81 -47c8,-4 19,-5 26,-1l81 47c7,4 6,11 -2,15l-81 47c-7,4 -19,5 -25,1z"/>
      <path class="fil23" d="M4856 3566l-82 -48c-6,-3 -5,-10 2,-14l81 -47c8,-4 19,-5 26,-1l81 47c7,4 6,10 -1,15l-81 47c-8,4 -19,4 -26,1z"/>
      <path class="fil23" d="M4982 3638l-82 -47c-6,-4 -5,-10 2,-15l81 -46c8,-5 19,-5 26,-1l82 47c6,4 5,10 -2,15l-81 46c-8,5 -19,5 -26,1z"/>
      <path class="fil23" d="M5108 3711l-81 -47c-7,-4 -6,-10 1,-15l81 -46c8,-5 19,-5 26,-1l82 47c6,3 5,10 -2,14l-81 47c-8,5 -19,5 -26,1z"/>
      <path class="fil23" d="M5234 3784l-81 -47c-7,-4 -6,-11 2,-15l81 -47c7,-4 19,-4 25,-1l82 47c6,4 6,11 -2,15l-81 47c-8,4 -19,5 -26,1z"/>
      <path class="fil23" d="M5361 3857l-82 -47c-7,-4 -6,-11 2,-15l81 -47c7,-4 19,-5 25,-1l82 47c6,4 6,11 -2,15l-81 47c-7,4 -19,5 -25,1z"/>
      <path class="fil23" d="M5487 3930l-82 -47c-7,-4 -6,-11 2,-15l81 -47c7,-4 19,-5 25,-1l82 47c7,4 6,11 -2,15l-81 47c-7,4 -19,4 -25,1z"/>
      <path class="fil23" d="M5613 4003l-82 -48c-6,-3 -6,-10 2,-14l81 -47c8,-5 19,-5 26,-1l81 47c7,4 6,10 -2,15l-81 46c-7,5 -19,5 -25,2z"/>
      <path class="fil23" d="M5739 4075l-82 -47c-6,-4 -5,-10 2,-15l81 -46c8,-5 19,-5 26,-1l81 47c7,4 6,10 -1,15l-81 46c-8,5 -19,5 -26,1z"/>
      <path class="fil23" d="M4537 3240l-81 -47c-7,-4 -6,-11 1,-15l81 -47c8,-4 19,-5 26,-1l82 47c6,4 5,11 -2,15l-81 47c-8,4 -19,5 -26,1z"/>
      <path class="fil23" d="M4412 3167l-82 -47c-6,-4 -6,-10 2,-15l81 -46c7,-5 19,-5 26,-1l81 47c7,4 6,10 -2,15l-81 46c-7,5 -19,5 -25,1z"/>
      <path class="fil23" d="M4286 3095l-81 -47c-7,-4 -6,-11 1,-15l81 -47c8,-4 19,-5 26,-1l82 47c6,4 5,11 -2,15l-81 47c-8,4 -19,5 -26,1z"/>
      <path class="fil23" d="M4161 3022l-82 -47c-6,-4 -6,-10 2,-15l81 -46c7,-5 19,-5 25,-1l82 47c7,4 6,10 -2,15l-81 46c-7,5 -19,5 -25,1z"/>
      <path class="fil23" d="M4290 2948l-82 -47c-6,-4 -6,-11 2,-15l27 -15c7,-5 19,-5 25,-2l82 48c7,3 6,10 -2,14l-27 16c-7,4 -19,5 -25,1z"/>
      <path class="fil23" d="M4454 3042l-82 -47c-7,-3 -6,-10 2,-14l27 -16c7,-4 19,-5 25,-1l82 47c6,4 6,11 -2,15l-27 15c-7,5 -19,5 -25,1z"/>
      <path class="fil23" d="M4579 3115l-82 -48c-7,-3 -6,-10 2,-14l27 -16c7,-4 19,-5 25,-1l82 47c6,4 6,11 -2,15l-27 16c-7,4 -19,4 -25,1z"/>
      <path class="fil23" d="M4704 3187l-82 -47c-7,-4 -6,-11 2,-15l27 -16c7,-4 19,-4 25,-1l82 47c6,4 6,11 -2,15l-27 16c-7,4 -19,5 -25,1z"/>
      <path class="fil23" d="M4829 3259l-82 -47c-7,-4 -6,-11 2,-15l27 -15c7,-5 19,-5 25,-2l82 48c6,3 6,10 -2,14l-27 16c-7,4 -19,5 -25,1z"/>
      <path class="fil23" d="M5526 3662l-81 -47c-7,-4 -6,-11 2,-15l26 -16c8,-4 19,-4 26,-1l82 48c6,3 5,10 -2,14l-27 16c-8,4 -19,5 -26,1z"/>
      <path class="fil23" d="M5651 3734l-81 -47c-7,-4 -6,-11 2,-15l26 -15c8,-5 19,-5 26,-1l82 47c6,3 5,10 -2,14l-27 16c-8,4 -19,5 -26,1z"/>
      <path class="fil23" d="M5776 3806l-81 -47c-7,-4 -6,-10 2,-15l26 -15c8,-5 19,-5 26,-1l82 47c6,4 5,10 -2,15l-27 15c-8,4 -19,5 -26,1z"/>
      <path class="fil23" d="M5901 3878l-81 -47c-7,-4 -6,-10 2,-15l26 -15c8,-4 19,-5 26,-1l82 47c6,4 5,10 -2,15l-27 15c-8,5 -19,5 -26,1z"/>
      <path class="fil23" d="M4663 3313l-81 -48c-7,-3 -6,-10 2,-14l81 -47c7,-4 19,-5 25,-1l82 47c6,4 6,10 -2,15l-81 47c-8,4 -19,4 -26,1z"/>
      <path class="fil23" d="M4790 3385l-82 -47c-7,-4 -6,-10 2,-14l81 -47c7,-5 19,-5 25,-1l82 47c7,4 6,10 -2,15l-81 46c-7,5 -19,5 -25,1z"/>
      <path class="fil23" d="M4916 3458l-82 -47c-6,-4 -6,-10 2,-15l81 -46c7,-5 19,-5 25,-1l82 47c7,3 6,10 -2,14l-81 47c-7,5 -19,5 -25,1z"/>
      <path class="fil23" d="M5042 3531l-82 -47c-6,-4 -6,-10 2,-15l81 -47c8,-4 19,-4 26,-1l81 48c7,3 6,10 -2,14l-81 47c-7,4 -19,5 -25,1z"/>
      <path class="fil23" d="M5168 3604l-82 -47c-6,-4 -5,-11 2,-15l81 -47c8,-4 19,-5 26,-1l81 47c7,4 6,11 -1,15l-81 47c-8,4 -19,5 -26,1z"/>
      <path class="fil23" d="M5294 3677l-82 -47c-6,-4 -5,-11 2,-15l81 -47c8,-4 19,-5 26,-1l82 47c6,4 5,11 -2,15l-81 47c-8,4 -19,5 -26,1z"/>
      <path class="fil23" d="M5420 3750l-81 -48c-7,-3 -6,-10 1,-14l81 -47c8,-4 19,-5 26,-1l82 47c6,4 5,10 -2,15l-81 47c-8,4 -19,4 -26,1z"/>
      <path class="fil23" d="M5546 3822l-81 -47c-7,-4 -6,-10 2,-15l81 -46c7,-5 19,-5 25,-1l82 47c6,4 6,10 -2,15l-81 46c-8,5 -19,5 -26,1z"/>
      <path class="fil23" d="M5673 3895l-82 -47c-7,-4 -6,-10 2,-15l81 -46c7,-5 19,-5 25,-2l82 48c6,3 6,10 -2,14l-81 47c-7,5 -19,5 -25,1z"/>
      <path class="fil23" d="M3942 3322l-240 -139c-7,-4 -6,-11 2,-15l81 -47c7,-4 19,-5 25,-1l241 139c6,4 5,10 -2,15l-81 47c-8,4 -19,4 -26,1z"/>
      <path class="fil23" d="M5492 4216l-241 -139c-6,-3 -5,-10 2,-14l81 -47c8,-4 19,-5 26,-1l240 139c7,4 6,10 -2,14l-80 47c-8,5 -19,5 -26,1z"/>
      <path class="fil23" d="M4988 4086l-82 -47c-7,-4 -6,-11 2,-15l96 -56c8,-4 19,-5 26,-1l81 47c7,4 6,11 -1,15l-97 56c-7,4 -19,5 -25,1z"/>
      <path class="fil23" d="M4072 3557l-131 -75c-7,-4 -6,-11 2,-15l96 -56c8,-4 19,-5 26,-1l130 76c7,3 6,10 -2,14l-96 56c-7,4 -19,5 -25,1z"/>
      <path class="fil23" d="M4866 4016l-131 -76c-6,-3 -5,-10 2,-14l97 -56c7,-4 19,-5 25,-1l131 75c6,4 6,11 -2,15l-96 56c-8,4 -19,5 -26,1z"/>
      <path class="fil23" d="M4253 3662l-130 -75c-7,-4 -6,-11 2,-15l96 -56c8,-4 19,-5 26,-1l130 76c7,3 6,10 -2,14l-96 56c-7,4 -19,5 -26,1z"/>
      <path class="fil23" d="M4248 3516l568 328c7,4 7,10 0,14l-99 57c-7,4 -18,4 -25,0l-568 -328 124 -71z"/>
      <path class="fil23" d="M5340 4218l91 52c5,4 5,9 -1,13l-40 22c-6,4 -16,4 -21,1l-91 -52c-5,-3 -5,-9 2,-12l39 -23c6,-4 16,-4 21,-1z"/>
      <path class="fil23" d="M5213 4145l91 52c5,3 5,9 -2,12l-39 23c-6,4 -16,4 -21,1l-91 -53c-5,-3 -5,-8 1,-12l40 -23c6,-3 15,-4 21,0z"/>
      <path class="fil23" d="M5087 4072l91 52c5,3 4,9 -2,12l-39 23c-6,4 -16,4 -21,1l-91 -53c-6,-3 -5,-8 1,-12l40 -22c6,-4 15,-4 21,-1z"/>
      <path class="fil23" d="M5283 4104l90 53c6,3 5,8 -1,12l-39 23c-7,3 -16,4 -21,1l-91 -53c-6,-3 -5,-8 1,-12l40 -23c6,-3 15,-4 21,-1z"/>
     </g>
    </g>
    <g>
     <g>
      <path class="fil16" d="M5418 2311l-78 -45c-7,-4 -13,-15 -14,-25 0,-10 6,-14 13,-10l78 45c8,4 14,15 14,25 0,10 -6,14 -13,10z"/>
      <path class="fil16" d="M5604 2419l-115 -67c-7,-4 -13,-15 -14,-25 0,-10 6,-14 13,-10l115 66c8,4 14,16 14,25 0,10 -6,15 -13,11z"/>
      <path class="fil16" d="M5379 2728l-78 -45c-7,-5 -13,-16 -13,-26 0,-9 5,-14 13,-10l78 45c7,5 13,16 13,26 0,9 -6,14 -13,10z"/>
      <path class="fil16" d="M5545 2823l-115 -66c-7,-4 -13,-16 -14,-25 0,-10 6,-15 13,-10l116 66c7,4 13,16 13,25 0,10 -6,15 -13,10z"/>
      <path class="fil16" d="M5204 2261l-49 -29c-7,-4 -13,-15 -13,-25 -1,-10 5,-14 12,-10l49 28c7,5 13,16 14,26 0,9 -6,14 -13,10z"/>
      <path class="fil16" d="M5370 2430l-149 -86c-7,-4 -13,-16 -13,-25 0,-10 5,-15 13,-10l149 86c7,4 13,15 13,25 0,10 -5,14 -13,10z"/>
      <path class="fil16" d="M5272 2520l-48 -28c-8,-5 -14,-16 -14,-26 0,-9 6,-14 13,-10l49 28c7,5 13,16 13,26 0,9 -5,14 -13,10z"/>
      <path class="fil16" d="M5603 3003l-131 -75c-7,-4 -13,-16 -13,-25 0,-10 6,-15 13,-11l130 76c7,4 13,15 14,25 0,10 -6,14 -13,10z"/>
      <path class="fil16" d="M5257 2657l-31 -18c-7,-4 -13,-15 -13,-25 -1,-10 5,-14 12,-10l32 18c7,4 13,16 13,25 0,10 -5,14 -13,10z"/>
      <path class="fil16" d="M5267 2809l-39 -22c-7,-4 -13,-16 -13,-25 0,-10 6,-15 13,-10l39 22c7,4 13,16 13,25 0,10 -5,15 -13,10z"/>
      <path class="fil16" d="M5419 2897l-103 -59c-7,-5 -13,-16 -13,-26 0,-9 5,-14 13,-10l102 60c7,4 13,15 14,25 0,9 -6,14 -13,10z"/>
      <path class="fil16" d="M5303 2903l-73 -42c-8,-4 -14,-16 -14,-25 0,-10 6,-15 13,-10l74 42c7,4 13,16 13,25 0,10 -5,15 -13,10z"/>
      <path class="fil16" d="M5715 3068l-48 -27c-7,-5 -13,-16 -13,-26 0,-9 5,-14 13,-10l47 28c7,4 13,15 13,25 1,10 -5,14 -12,10z"/>
      <path class="fil16" d="M5454 2625l-130 -76c-8,-4 -14,-15 -14,-25 0,-10 6,-14 13,-10l130 75c8,4 14,16 14,25 0,10 -6,15 -13,11z"/>
      <path class="fil16" d="M5450 2549l-228 -131c-7,-4 -13,-16 -13,-26 0,-9 6,-14 13,-10l227 132c7,4 13,15 13,25 1,10 -5,14 -12,10z"/>
      <path class="fil16" d="M5355 2641l-130 -76c-7,-4 -13,-15 -14,-25 0,-10 6,-14 13,-10l131 75c7,5 13,16 13,26 0,9 -6,14 -13,10z"/>
      <path class="fil16" d="M5553 2682l-48 -28c-7,-4 -13,-15 -13,-25 0,-10 6,-14 13,-10l47 27c8,5 14,16 14,26 0,9 -6,14 -13,10z"/>
      <path class="fil16" d="M5955 2621l-280 -162c-7,-4 -13,-15 -14,-25 0,-9 6,-14 13,-10l281 162c7,4 13,16 13,25 0,10 -5,15 -13,10z"/>
      <path class="fil16" d="M5384 2804l-157 -91c-7,-4 -13,-15 -13,-25 0,-10 5,-14 13,-10l156 90c8,4 14,16 14,25 0,10 -6,15 -13,11z"/>
      <path class="fil16" d="M5269 2225l-115 -66c-8,-5 -14,-16 -14,-26 0,-9 6,-14 13,-10l115 67c8,4 14,15 14,25 0,10 -6,14 -13,10z"/>
      <path class="fil16" d="M5299 2974l-133 -77c-8,-4 -14,-15 -14,-25 0,-10 6,-14 13,-10l134 77c7,4 13,15 13,25 0,10 -6,14 -13,10z"/>
     </g>
    </g>
   </g>
   <g>
    <g>
     <path class="fil16" d="M1888 3090l687 -400c136,-79 265,-91 362,-35 97,56 150,173 150,330l0 51c-5,3 -10,6 -15,9l0 -60c0,-151 -51,-264 -143,-317 -92,-53 -215,-41 -346,35l-687 400c-4,2 -9,1 -11,-3 -2,-3 -1,-8 3,-10z"/>
     <path class="fil16" d="M4031 2613l0 -1548c0,-310 218,-688 487,-843 131,-76 255,-88 349,-34 94,54 145,167 145,319l0 108c-5,5 -10,10 -15,15l0 -123c0,-146 -49,-255 -138,-306 -88,-51 -207,-39 -334,34 -264,152 -479,525 -479,830l0 1548c0,257 -151,561 -356,744 0,-6 0,-13 0,-20 197,-181 341,-475 341,-724z"/>
     <path class="fil23" d="M5012 662c25,-23 141,-126 310,-151 192,-30 271,194 271,194 0,0 23,117 22,186 -1,69 -6,319 -6,319l-608 -350 0 0c-2,-1 -4,-4 -4,-7l0 -177c5,-6 10,-9 15,-14z"/>
    </g>
    <g>
     <g>
      <path class="fil1" d="M5443 520l-576 -332 2 8c-89,-57 -223,-64 -402,68 -357,262 -400,626 -418,694 -18,68 -11,500 -11,500 0,0 -1,1043 -2,1164 -1,121 -36,257 -105,404 -68,147 -243,325 -243,325l0 212c28,229 126,283 271,296 117,11 242,-74 341,-166 -4,4 -6,6 -6,6l0 212c28,230 126,283 271,296 145,13 301,-119 408,-232 106,-112 195,-284 245,-439 50,-155 33,-355 33,-355 0,0 2,-1139 3,-1364 1,-224 8,-185 82,-411 74,-226 269,-384 269,-384l469 -139 -631 -363z"/>
      <path class="fil23" d="M4440 4188c-8,-10 -110,-79 -137,-201 -14,-67 -13,-169 -13,-169 0,0 1,-58 2,-109 1,-1 2,-2 4,-3 0,-7 0,-14 0,-21 -1,1 -2,2 -3,3 0,-12 1,-23 1,-32 3,-54 -37,-169 -37,-169 0,0 -56,-154 -224,-160 -150,-5 -307,102 -340,127l0 -70c-2,2 -5,3 -7,5 0,-10 0,-19 0,-29 2,-1 3,-2 4,-3 0,-6 0,-13 0,-20 -1,1 -2,2 -3,3 0,-12 1,-23 1,-32 3,-54 -36,-169 -36,-169 0,0 -57,-154 -225,-160 -149,-5 -307,102 -340,126l0 -69c-5,3 -10,6 -15,9l0 122c0,148 49,258 138,313l1 1 3 2c0,0 1,1 2,1 1,0 1,1 2,1l616 355c0,0 0,-1 0,-1l606 349z"/>
      <g>
       <path class="fil16" d="M3542 3003c0,0 -4,-2 -12,-6 -3,-1 -5,-2 -8,-3l-585 -339c0,0 -108,-57 -238,-9 -130,48 -812,457 -812,457l609 350 0 0c1,1 1,1 2,1l604 348c0,0 342,-212 578,-349l15 -8c97,-56 174,-97 198,-104 145,-38 247,9 273,23l-624 -361z"/>
       <path class="fil16" d="M4166 3364l7 4c0,0 -2,-1 -7,-4z"/>
      </g>
     </g>
     <path class="fil23" d="M5618 1011c25,-24 141,-126 310,-152 192,-29 271,195 271,195 0,0 22,116 22,185 -1,69 -6,319 -6,319l-608 -350 0 0c-3,-1 -4,-3 -4,-6l0 -178c5,-5 10,-8 15,-13z"/>
     <g>
      <path class="fil11" d="M4559 4216c67,0 141,-23 218,-67 266,-154 483,-529 483,-837l0 -1549c0,-305 215,-677 479,-830 127,-73 245,-85 334,-34 89,52 138,160 138,307l0 346c0,4 3,7 7,7 5,0 8,-3 8,-7l0 -346c0,-152 -52,-266 -145,-320 -94,-54 -218,-42 -349,34 -269,155 -487,533 -487,843l0 1549c0,303 -214,673 -476,824 -126,73 -243,84 -332,34 -88,-51 -136,-159 -136,-304l0 -182c0,-157 -54,-275 -151,-331 -97,-56 -225,-43 -361,36l-687 400c-4,2 -5,6 -3,10 2,4 7,5 10,3l688 -400c131,-76 254,-89 346,-35 92,53 143,165 143,317l0 182c0,150 51,263 144,317 38,22 82,33 129,33z"/>
     </g>
    </g>
    <path class="fil1" d="M4606 2143l-102 -59c-9,-5 -17,-20 -17,-32 0,-13 7,-19 17,-13l101 58c10,6 18,20 18,33 0,13 -8,18 -17,13z"/>
    <path class="fil1" d="M4822 2268l-150 -87c-9,-5 -17,-20 -18,-33 0,-12 8,-18 17,-13l150 87c9,5 17,20 17,32 1,13 -7,19 -16,14z"/>
    <path class="fil1" d="M4595 1756l-194 -112c-10,-6 -18,-20 -18,-33 0,-13 7,-18 17,-13l194 112c9,5 17,20 17,33 0,12 -7,18 -16,13z"/>
    <path class="fil1" d="M4467 1873l-63 -37c-10,-5 -17,-20 -18,-33 0,-12 8,-18 17,-13l63 37c10,5 18,20 18,33 0,12 -7,18 -17,13z"/>
    <path class="fil1" d="M4448 2052l-41 -24c-10,-5 -17,-20 -18,-33 0,-12 8,-18 17,-13l41 24c9,5 17,20 17,32 0,13 -7,19 -16,14z"/>
    <path class="fil1" d="M4703 2009l-169 -98c-10,-5 -17,-20 -18,-33 0,-12 8,-18 17,-13l170 98c9,5 17,20 17,33 0,12 -7,18 -17,13z"/>
    <path class="fil1" d="M4698 1910l-296 -170c-9,-6 -17,-20 -17,-33 0,-13 7,-18 16,-13l296 171c9,5 17,20 17,32 0,13 -7,19 -16,13z"/>
    <path class="fil1" d="M4575 2030l-170 -98c-9,-5 -17,-20 -17,-33 0,-12 7,-18 17,-13l169 98c9,5 17,20 17,33 1,12 -7,18 -16,13z"/>
    <path class="fil1" d="M4832 2083l-62 -35c-9,-6 -17,-21 -17,-33 0,-13 7,-19 16,-13l62 35c9,6 17,20 17,33 1,13 -7,19 -16,13z"/>
    <g>
     <path class="fil1" d="M4656 1601l-101 -58c-10,-6 -17,-20 -18,-33 0,-13 8,-19 17,-13l102 58c9,6 17,21 17,33 0,13 -7,19 -17,13z"/>
     <path class="fil1" d="M4898 1741l-149 -86c-10,-6 -18,-21 -18,-33 0,-13 7,-19 17,-13l150 86c9,6 17,20 17,33 0,13 -7,18 -17,13z"/>
     <path class="fil1" d="M4606 2143l-102 -59c-9,-5 -17,-20 -17,-32 0,-13 7,-19 17,-13l101 58c10,6 18,20 18,33 0,13 -8,18 -17,13z"/>
     <path class="fil1" d="M4822 2268l-150 -87c-9,-5 -17,-20 -18,-33 0,-12 8,-18 17,-13l150 87c9,5 17,20 17,32 1,13 -7,19 -16,14z"/>
     <path class="fil1" d="M4378 1536l-64 -37c-9,-5 -17,-20 -17,-33 0,-12 7,-18 17,-13l63 37c9,5 17,20 18,33 0,12 -8,18 -17,13z"/>
     <path class="fil1" d="M4595 1756l-194 -112c-10,-6 -18,-20 -18,-33 0,-13 7,-18 17,-13l194 112c9,5 17,20 17,33 0,12 -7,18 -16,13z"/>
     <path class="fil1" d="M4467 1873l-63 -37c-10,-5 -17,-20 -18,-33 0,-12 8,-18 17,-13l63 37c10,5 18,20 18,33 0,12 -7,18 -17,13z"/>
     <path class="fil1" d="M4897 2501l-170 -98c-9,-5 -17,-20 -17,-33 -1,-12 7,-18 16,-13l170 98c9,6 17,20 17,33 1,13 -7,18 -16,13z"/>
     <path class="fil1" d="M4448 2052l-41 -24c-10,-5 -17,-20 -18,-33 0,-12 8,-18 17,-13l41 24c9,5 17,20 17,32 0,13 -7,19 -16,14z"/>
     <path class="fil1" d="M4461 2249l-51 -29c-9,-5 -17,-20 -17,-33 -1,-12 7,-18 16,-13l51 29c9,6 17,21 17,33 0,13 -7,19 -16,13z"/>
     <path class="fil1" d="M4657 2363l-133 -77c-9,-6 -17,-20 -17,-33 -1,-13 7,-18 16,-13l134 77c9,5 17,20 17,33 0,12 -7,18 -17,13z"/>
     <path class="fil1" d="M4507 2371l-95 -55c-10,-5 -18,-20 -18,-33 0,-12 7,-18 17,-13l96 56c9,5 17,20 17,32 0,13 -7,19 -17,13z"/>
     <path class="fil1" d="M4703 2009l-169 -98c-10,-5 -17,-20 -18,-33 0,-12 8,-18 17,-13l170 98c9,5 17,20 17,33 0,12 -7,18 -17,13z"/>
     <path class="fil1" d="M4698 1910l-296 -170c-9,-6 -17,-20 -17,-33 0,-13 7,-18 16,-13l296 171c9,5 17,20 17,32 0,13 -7,19 -16,13z"/>
     <path class="fil1" d="M4575 2030l-170 -98c-9,-5 -17,-20 -17,-33 0,-12 7,-18 17,-13l169 98c9,5 17,20 17,33 1,12 -7,18 -16,13z"/>
     <path class="fil1" d="M4832 2083l-62 -35c-9,-6 -17,-21 -17,-33 0,-13 7,-19 16,-13l62 35c9,6 17,20 17,33 1,13 -7,19 -16,13z"/>
     <path class="fil1" d="M4612 2242l-204 -118c-9,-5 -17,-20 -17,-33 0,-12 7,-18 17,-13l203 118c10,5 18,20 18,33 0,12 -7,18 -17,13z"/>
     <path class="fil1" d="M4463 1489l-150 -86c-10,-6 -17,-20 -18,-33 0,-12 8,-18 17,-13l150 87c9,5 17,20 17,32 0,13 -7,19 -16,13z"/>
     <path class="fil1" d="M4502 2463l-174 -100c-9,-5 -17,-20 -17,-33 0,-12 7,-18 17,-13l173 101c10,5 17,20 18,32 0,13 -8,19 -17,13z"/>
    </g>
    <path class="fil1" d="M4582 3054l-101 -58c-10,-6 -18,-21 -18,-33 0,-13 7,-19 17,-13l101 58c10,6 18,21 18,33 0,13 -7,19 -17,13z"/>
    <path class="fil1" d="M4798 3179l-150 -87c-9,-5 -17,-20 -17,-32 -1,-13 7,-19 16,-14l150 87c10,5 17,20 18,33 0,12 -8,18 -17,13z"/>
    <path class="fil1" d="M4571 2667l-194 -112c-10,-5 -17,-20 -18,-33 0,-12 8,-18 17,-13l194 112c9,6 17,20 17,33 1,13 -7,19 -16,13z"/>
    <path class="fil1" d="M4443 2784l-63 -37c-10,-5 -17,-20 -18,-33 0,-12 8,-18 17,-13l64 37c9,5 17,20 17,33 0,12 -7,18 -17,13z"/>
    <path class="fil1" d="M4424 2963l-41 -24c-9,-5 -17,-20 -17,-33 -1,-12 7,-18 16,-13l41 24c9,5 17,20 17,33 1,12 -7,18 -16,13z"/>
    <path class="fil1" d="M4679 2920l-169 -98c-10,-5 -17,-20 -18,-32 0,-13 8,-19 17,-14l170 98c9,6 17,20 17,33l0 0c0,13 -7,19 -17,13z"/>
    <path class="fil1" d="M4674 2822l-296 -171c-9,-5 -17,-20 -17,-33 0,-12 7,-18 17,-13l295 171c9,5 17,20 17,33 1,12 -7,18 -16,13z"/>
    <path class="fil1" d="M4551 2941l-170 -98c-9,-5 -17,-20 -17,-33 0,-12 7,-18 17,-13l169 98c10,6 17,20 18,33 0,13 -8,19 -17,13z"/>
    <path class="fil1" d="M4808 2994l-62 -35c-9,-6 -17,-20 -17,-33 0,-13 7,-18 17,-13l61 36c10,5 17,20 18,32 0,13 -8,19 -17,13z"/>
   </g>
   <g>
    <polygon class="fil16" points="5325,5175 5513,5067 5701,5175 5513,5284 "/>
    <polygon class="fil16" points="5724,4942 5912,4833 6100,4942 5912,5050 "/>
    <polygon class="fil16" points="6122,4714 6310,4605 6499,4714 6310,4822 "/>
    <g>
     <g>
      <g>
       <polygon class="fil25" points="5912,4942 5912,4362 5724,4254 5724,4833 "/>
       <polygon class="fil29" points="5912,4362 6100,4254 6100,4833 5912,4942 "/>
       <polygon class="fil29" points="5912,4942 5912,4362 5724,4254 5724,4833 "/>
      </g>
      <g>
       <polygon class="fil29" points="5513,5175 5513,4849 5325,4741 5325,5067 "/>
       <polygon class="fil29" points="5513,4849 5701,4741 5701,5067 5513,5175 "/>
       <polygon class="fil18" points="5325,4741 5513,4632 5701,4741 5513,4849 "/>
      </g>
      <g>
       <polygon class="fil29" points="6310,4714 6310,3917 6122,3808 6122,4605 "/>
       <polygon class="fil29" points="6310,3917 6499,3808 6499,4605 6310,4714 "/>
       <polygon class="fil18" points="6122,3808 6310,3700 6499,3808 6310,3917 "/>
      </g>
     </g>
     <polygon class="fil18" points="5724,4254 5912,4145 6100,4254 5912,4362 "/>
    </g>
   </g>
   <g>
    <g>
     <g>
      <path class="fil1" d="M2648 4089c0,0 -58,-30 -94,14 -35,43 -86,146 -88,216 -1,70 55,65 89,48 34,-16 132,-159 138,-187 6,-28 -7,-65 -17,-73 -9,-7 -28,-18 -28,-18z"/>
      <path class="fil16" d="M2661 4075l2 60c1,12 -5,25 -17,31 -10,6 -24,10 -44,7 -44,-7 -48,-20 -51,-80 -3,-60 110,-18 110,-18z"/>
      <g>
       <path class="fil1" d="M2436 3973c0,0 -59,-29 -94,14 -36,44 -87,147 -88,216 -2,70 55,65 88,49 34,-17 132,-159 138,-187 6,-28 -7,-66 -16,-74 -10,-7 -28,-18 -28,-18z"/>
       <path class="fil16" d="M2448 3959l3 60c0,13 -6,25 -17,31 -10,6 -25,10 -45,7 -44,-7 -48,-19 -51,-79 -3,-61 110,-19 110,-19z"/>
       <path class="fil23" d="M2966 2854c-17,-279 -302,41 -302,41l-196 192 -176 193c-34,38 -50,89 -44,140l71 542c4,27 27,47 54,47 7,-1 16,-1 26,-3 64,-10 59,-70 59,-70l-13 -507 370 -223c0,0 169,-72 151,-352z"/>
      </g>
      <path class="fil23" d="M3179 2961c-17,-280 -303,41 -303,41l-195 192 -177 193c-34,38 -50,89 -43,139l71 543c3,27 26,46 53,46 8,0 17,-1 27,-2 63,-10 59,-71 59,-71l-13 -507 369 -223c0,0 169,-72 152,-351z"/>
      <path class="fil1" d="M3010 2063c217,90 212,218 212,218 0,0 -42,469 -28,783 6,131 -696,141 -591,-209 123,-412 77,-746 135,-796 58,-51 216,-19 272,4z"/>
      <path class="fil30" d="M3080 2177c-12,43 -69,67 -129,51 -60,-15 -99,-63 -88,-107 12,-44 69,-67 129,-52 60,15 99,64 88,108z"/>
      <path class="fil3" d="M2988 2243c-13,0 -26,-1 -40,-5 -31,-8 -58,-24 -76,-46 -18,-23 -25,-49 -19,-74 13,-49 76,-76 142,-59 31,8 58,24 75,46 19,23 26,50 20,74 -10,39 -53,64 -102,64zm-33 -168l0 0c-40,0 -74,18 -82,48 -4,18 1,38 15,56 16,18 39,32 66,39 54,14 106,-6 116,-44 4,-18 -1,-38 -16,-55 -15,-19 -38,-33 -65,-40 -11,-3 -23,-4 -34,-4z"/>
      <path class="fil30" d="M2923 2053c0,0 2,9 -2,78 -1,21 75,41 94,22 20,-20 12,-40 17,-114 4,-73 -109,14 -109,14z"/>
      <path class="fil31" d="M3032 2039c0,0 -19,69 -111,95l2 -62 109 -33z"/>
      <path class="fil30" d="M3090 1866c23,90 -31,181 -120,204 -89,23 -180,-31 -203,-120 -23,-89 30,-180 120,-203 89,-23 180,30 203,119z"/>
      <path class="fil31" d="M2967 1914c0,0 -92,40 -156,40 -63,1 -49,-53 -49,-53l188 -27 17 40z"/>
      <path class="fil18" d="M2792 1925c0,0 80,-34 150,-20 17,3 32,12 43,25 3,4 8,8 13,9 12,3 32,-48 57,-50 24,-1 40,16 20,48 -20,32 -13,67 -4,72 9,6 106,-69 21,-238 -86,-169 -303,-78 -336,-43 0,0 -36,31 -65,3 0,0 -32,243 101,194z"/>
      <path class="fil30" d="M3101 2624l0 127c0,14 -6,28 -17,38l-261 237 30 46 344 -250c16,-12 26,-30 28,-49l24 -221 -148 72z"/>
      <path class="fil1" d="M3204 2217c0,0 79,119 108,432 0,0 -135,44 -211,19 -77,-25 103,-451 103,-451z"/>
      <path class="fil11" d="M3086 2368c0,0 -31,165 -32,243 -1,22 12,41 32,48l0 -291z"/>
     </g>
     <g>
      <path class="fil1" d="M3019 3191l-58 -7 -372 -215c-12,-7 -32,-6 -46,2l-264 152 -34 -5 0 35 0 0c-1,5 2,9 8,12l421 243c12,7 33,6 46,-1l287 -166c8,-4 12,-10 12,-16l0 -34z"/>
      <path class="fil11" d="M2739 3056l-26 -16 -290 0 -144 83 -34 -5 0 35 0 0c-1,5 2,9 8,12l421 243c6,4 15,6 24,5l41 -357z"/>
      <path class="fil1" d="M2260 3120l-15 -2 0 35 0 0c-1,5 2,9 8,12l7 5 0 -50z"/>
      <path class="fil3" d="M2678 3410c11,5 28,4 40,-2l0 -59 -40 0 0 61z"/>
      <path class="fil3" d="M2674 3374l-421 -243c-12,-7 -11,-19 3,-27l287 -166c14,-8 34,-9 46,-2l422 243c12,7 10,19 -4,27l-287 166c-13,8 -34,9 -46,2z"/>
      <path class="fil16" d="M2667 3337l-350 -202c-10,-6 -9,-16 2,-23l154 -86c11,-7 29,-7 39,-2l350 203c10,5 9,15 -3,22l-154 86c-11,7 -28,8 -38,2z"/>
     </g>
     <path class="fil30" d="M2559 2930l-4 29c-4,25 -3,50 2,75l5 25c3,15 14,26 29,29 11,2 22,-6 23,-18l7 -62c0,0 16,21 24,21 7,0 -9,-62 -26,-97 -18,-36 -60,-2 -60,-2z"/>
     <path class="fil30" d="M2702 2468l-45 90c-11,21 -17,44 -19,68l-19 306 -60 -2 -27 -343c-1,-11 0,-22 2,-32l31 -175 137 88z"/>
     <g>
      <path class="fil23" d="M2660 3397l-36 -46 -371 -215c-12,-7 -22,-25 -22,-41l1 -304 -22 -28 20 -12 0 0c4,-2 9,-2 15,1l421 244c12,7 21,25 21,41l0 331c0,9 -3,15 -8,18l-19 11z"/>
      <path class="fil11" d="M2403 3223l-27 -15 -144 -252 0 -165 -22 -28 20 -12 0 0c4,-2 9,-2 15,1l421 244c6,3 12,10 16,18l-279 209z"/>
      <path class="fil1" d="M2220 2775l-10 -12 20 -12 0 0c4,-2 9,-2 15,1l7 4 -32 19z"/>
      <path class="fil28" d="M2670 2998c9,8 16,23 17,36l-41 24 -19 -35 43 -25z"/>
      <path class="fil1" d="M2646 3007l-421 -243c-12,-7 -22,0 -22,16l0 331c0,16 10,34 21,41l421 244c12,7 22,0 22,-16l0 -331c0,-16 -9,-35 -21,-42z"/>
     </g>
     <path class="fil30" d="M2853 3072l-7 14c-8,16 -20,29 -35,39l-42 25c-13,8 -29,9 -43,1 0,0 0,0 -1,-1 -13,-8 -14,-27 -4,-38l44 -45c0,0 -24,19 -31,11 -5,-5 24,-33 46,-33 22,-1 43,-19 43,-19l30 46z"/>
     <path class="fil1" d="M2742 2058c0,0 -160,174 -225,334 0,0 55,99 189,138 134,39 36,-472 36,-472z"/>
     <path class="fil11" d="M2676 2519l26 -250 -61 235c11,5 22,11 35,15z"/>
     <path class="fil3" d="M2862 2023l-43 -12c0,0 21,32 51,41 30,8 34,-17 34,-17l-42 -12z"/>
    </g>
    <path class="fil3" d="M3092 1954c0,13 -11,24 -24,24 -13,0 -24,-11 -24,-24 0,-13 11,-24 24,-24 13,0 24,11 24,24z"/>
   </g>
   <path class="fil18" d="M6478 2130l-73 -147 147 -72 72 147 -146 72zm-29 -132l0 0 44 88 88 -43 -44 -88 -88 43z"/>
   <g>
    <path class="fil16" d="M3573 4844c-160,-93 -420,-93 -581,0 -160,92 -160,243 0,335 161,93 421,93 581,0 161,-92 161,-243 0,-335zm-157 245l0 0c-73,42 -193,42 -267,0 -73,-43 -73,-112 0,-155 74,-42 194,-42 267,0 74,43 74,112 0,155z"/>
    <g>
     <g>
      <path class="fil32" d="M2932 4789l146 2c11,-14 27,-27 47,-39 80,-46 207,-50 295,-11l87 -81 134 2c-7,-5 -14,-9 -21,-13 -186,-108 -488,-108 -674,0 -35,20 -63,42 -84,65l70 75z"/>
      <polygon class="fil29" points="3641,4449 3641,4662 3507,4660 3507,4447 "/>
      <polygon class="fil32" points="3420,4529 3420,4741 3507,4660 3507,4447 "/>
      <path class="fil32" d="M3078 4579l0 212 193 -157 149 107 0 -212 -137 -67c0,0 -188,58 -198,60 -10,3 -7,57 -7,57z"/>
      <polygon class="fil32" points="2932,4576 2932,4789 3078,4791 3078,4579 "/>
      <polygon class="fil29" points="2862,4502 2862,4714 2932,4789 2932,4576 "/>
      <path class="fil18" d="M2932 4576l146 3c11,-15 27,-28 47,-39 80,-47 207,-50 295,-11l87 -82 134 2c-7,-4 -14,-9 -21,-13 -186,-107 -488,-107 -674,0 -35,20 -63,42 -84,66l70 74z"/>
     </g>
     <g>
      <path class="fil1" d="M3464 4555l0 195 127 -30c0,0 -8,-114 -11,-117 -2,-3 -116,-48 -116,-48z"/>
      <g>
       <path class="fil23" d="M3368 4750l0 213 14 15 89 -52c0,0 -14,-162 -16,-165 -1,-4 -87,-11 -87,-11z"/>
       <path class="fil11" d="M3540 4696l-76 72c64,50 56,121 -23,167 -22,13 -47,22 -73,28l79 85 -70 66c89,-11 174,-36 243,-76 160,-92 183,-234 67,-340l-147 -2z"/>
       <polygon class="fil11" points="3377,4901 3377,5114 3551,5047 3760,4847 3759,4621 3538,4796 "/>
       <path class="fil16" d="M3540 4483l-76 72c64,50 56,122 -23,167 -22,13 -47,22 -73,28l79 85 -70 66c89,-10 174,-35 243,-75 160,-93 183,-235 67,-341l-147 -2z"/>
      </g>
     </g>
     <g>
      <path class="fil11" d="M3376 5047l-70 -75c-64,4 -132,-8 -181,-37 -52,-30 -73,-70 -64,-109l-166 -2 -64 -68c-56,96 -18,206 115,282 97,57 226,83 353,81l77 -72z"/>
      <polygon class="fil11" points="3299,4906 3299,5119 2806,4845 2806,4633 2878,4662 "/>
      <polygon class="fil23" points="3376,4834 3376,5047 3299,5119 3299,4906 "/>
      <path class="fil1" d="M3376 4834l-70 -75c-64,4 -132,-8 -181,-37 -52,-29 -73,-70 -64,-108l-166 -3 -64 -68c-56,96 -18,206 115,283 97,56 226,83 353,80l77 -72z"/>
     </g>
    </g>
   </g>
   <path class="fil1" d="M2651 1092c-58,0 -106,-48 -106,-106 0,-59 48,-107 106,-107 59,0 107,48 107,107 0,58 -48,106 -107,106zm0 -180l0 0c-40,0 -73,33 -73,74 0,40 33,73 73,73 41,0 74,-33 74,-73 0,-41 -33,-74 -74,-74z"/>
   <g>
    <g>
     <path class="fil29" d="M5461 1259l-437 -252c-9,-5 -17,-6 -23,-2 0,0 0,0 0,0l-42 24c0,0 19,7 30,11l0 319c0,26 15,56 35,67l418 241 0 38 43 -25 0 0c7,-4 12,-14 12,-28l0 -326c0,-25 -16,-56 -36,-67z"/>
     <path class="fil18" d="M5418 1703l-437 -252c-20,-11 -36,-42 -36,-68l0 -325c0,-26 16,-38 36,-26l437 252c20,11 35,41 35,67l0 326c0,26 -15,38 -35,26z"/>
    </g>
    <g>
     <path class="fil3" d="M5128 1339c0,18 -13,26 -30,17 -16,-10 -29,-33 -29,-51 0,-19 13,-27 29,-17 17,9 30,32 30,51z"/>
     <path class="fil3" d="M5217 1390c0,19 -13,27 -29,17 -17,-9 -30,-32 -30,-51 0,-19 13,-26 30,-17 16,10 29,32 29,51z"/>
     <path class="fil3" d="M5307 1442c0,19 -14,26 -30,17 -16,-9 -29,-32 -29,-51 0,-19 13,-27 29,-17 16,9 30,32 30,51z"/>
    </g>
   </g>
   <g>
    <g>
     <path class="fil1" d="M3334 762l-429 -248c-9,-5 -17,-5 -23,-1 0,0 0,-1 0,-1l-41 24c0,0 18,7 29,11l0 313c0,25 15,55 35,66l410 237 0 36 42 -24 0 0c7,-4 11,-14 11,-28l0 -319c0,-25 -15,-55 -34,-66z"/>
     <path class="fil16" d="M3291 1198l-429 -248c-19,-11 -34,-40 -34,-66l0 -319c0,-25 15,-37 34,-26l429 248c20,11 35,40 35,66l0 319c0,25 -15,37 -35,26z"/>
    </g>
    <g>
     <path class="fil3" d="M3007 840c0,19 -13,26 -29,17 -16,-9 -29,-32 -29,-50 0,-19 13,-26 29,-17 16,9 29,32 29,50z"/>
     <path class="fil3" d="M3094 891c0,18 -13,26 -29,17 -16,-10 -29,-32 -29,-51 0,-18 13,-26 29,-16 16,9 29,31 29,50z"/>
     <path class="fil3" d="M3182 941c0,19 -13,26 -29,17 -16,-9 -29,-32 -29,-50 0,-18 13,-26 29,-17 16,10 29,32 29,50z"/>
    </g>
   </g>
   <path class="fil18" d="M1914 3934l-72 -146 146 -73 73 147 -147 72zm-29 -131l0 0 44 88 88 -44 -43 -88 -89 44z"/>
  </g>
 </g>
</svg>
